<svg width="55" height="55" viewBox="0 0 55 55" fill="none" xmlns="http://www.w3.org/2000/svg">
<g id="clear_24px">
<path id="icon/content/clear_24px" d="M42.8346 15.3967C43.2251 15.0062 43.2251 14.373 42.8346 13.9825L41.0175 12.1654C40.627 11.7749 39.9939 11.7749 39.6033 12.1654L28.2071 23.5616C27.8166 23.9522 27.1834 23.9522 26.7929 23.5616L15.3967 12.1654C15.0062 11.7749 14.373 11.7749 13.9825 12.1654L12.1655 13.9825C11.7749 14.373 11.7749 15.0062 12.1655 15.3967L23.5617 26.7929C23.9522 27.1834 23.9522 27.8166 23.5617 28.2071L12.1655 39.6033C11.7749 39.9938 11.7749 40.627 12.1655 41.0175L13.9825 42.8346C14.373 43.2251 15.0062 43.2251 15.3967 42.8346L26.7929 31.4384C27.1834 31.0478 27.8166 31.0478 28.2071 31.4384L39.6033 42.8346C39.9939 43.2251 40.627 43.2251 41.0175 42.8346L42.8346 41.0175C43.2251 40.627 43.2251 39.9938 42.8346 39.6033L31.4384 28.2071C31.0478 27.8166 31.0478 27.1834 31.4384 26.7929L42.8346 15.3967Z" fill="#808D97" stroke="#808D97"/>
</g>
</svg>
