<svg width="33" height="33" viewBox="0 0 33 33" fill="none" xmlns="http://www.w3.org/2000/svg">
<path d="M31.8346 4.3967C32.2251 4.00618 32.2251 3.37301 31.8346 2.98249L30.0175 1.16545C29.627 0.774926 28.9938 0.774926 28.6033 1.16545L17.2071 12.5617C16.8166 12.9522 16.1834 12.9522 15.7929 12.5617L4.39669 1.16545C4.00617 0.774927 3.373 0.774926 2.98248 1.16545L1.16544 2.98249C0.774915 3.37301 0.774915 4.00618 1.16544 4.3967L12.5616 15.7929C12.9522 16.1834 12.9522 16.8166 12.5616 17.2071L1.16544 28.6033C0.774916 28.9938 0.774915 29.627 1.16544 30.0175L2.98248 31.8346C3.373 32.2251 4.00617 32.2251 4.39669 31.8346L15.7929 20.4384C16.1834 20.0478 16.8166 20.0478 17.2071 20.4384L28.6033 31.8346C28.9938 32.2251 29.627 32.2251 30.0175 31.8346L31.8346 30.0175C32.2251 29.627 32.2251 28.9938 31.8346 28.6033L20.4384 17.2071C20.0478 16.8166 20.0478 16.1834 20.4384 15.7929L31.8346 4.3967Z" fill="#808D97" stroke="#808D97"/>
</svg>
